# Blender 3.3.1
# www.blender.org
mtllib Bonus_PowerUP.mtl
o Cube
v -0.334736 1.393938 -1.966133
v -0.334736 1.391808 1.101251
v -0.127443 1.266349 -2.121335
v -0.127443 1.264752 1.252952
v -0.334736 2.364064 -0.423089
v -0.334736 3.440701 -0.414233
v -0.127443 2.321916 -0.423233
v -0.127443 3.499928 -0.413855
v -0.074228 2.195430 -0.423662
v -0.074228 0.883459 1.708207
v -0.074228 3.677666 -0.412721
v -0.074228 0.883459 -2.587094
v -0.382066 2.195430 -0.423662
v -0.382066 0.883459 -2.587094
v -0.382066 3.677666 -0.412721
v -0.382066 0.883459 1.708207
vn -1.0000 -0.0000 -0.0000
vn 1.0000 -0.0000 -0.0000
vn -0.0000 0.6046 0.7965
vn -0.0000 -0.8551 0.5185
vn -0.0000 -0.8516 -0.5241
vn -0.0000 0.6141 -0.7892
vn 0.8734 0.4135 0.2572
vn 0.9156 -0.2457 0.3182
vn 0.8731 0.4157 -0.2548
vn 0.9154 -0.2421 -0.3215
vn -0.9363 0.2990 -0.1841
vn -0.9598 -0.1686 -0.2245
vn -0.9365 0.2973 0.1858
vn -0.9599 -0.1710 0.2222
vt 0.404785 0.036083
vt 0.404642 0.214614
vt 0.397340 0.722936
vt 0.397234 0.526541
vt 0.404642 0.125934
vt 0.583215 0.125995
vt 0.397340 0.624055
vt 0.593705 0.624010
vt 0.375000 0.624023
vt 0.375000 0.500000
vt 0.625000 0.624023
vt 0.375000 0.750000
vt 0.125000 0.624023
vt 0.375000 0.125977
vt 0.125000 0.750000
vt 0.375000 1.000000
vt 0.375000 0.000000
vt 0.875000 0.624023
vt 0.625000 0.125977
vt 0.125000 0.500000
vt 0.375000 0.250000
s 0
usemtl Material.001
f 15/18/3 16/21/3 10/10/3 11/11/3
f 13/13/4 14/15/4 12/12/4 9/9/4
f 16/20/5 13/13/5 9/9/5 10/10/5
f 11/11/6 12/12/6 14/16/6 15/18/6
f 4/4/7 10/10/7 9/9/7 7/7/7
f 3/3/8 12/12/8 11/11/8 8/8/8
f 7/7/9 9/9/9 12/12/9 3/3/9
f 8/8/10 11/11/10 10/10/10 4/4/10
f 1/1/11 14/17/11 13/14/11 5/5/11
f 2/2/12 16/21/12 15/19/12 6/6/12
f 5/5/13 13/14/13 16/21/13 2/2/13
f 6/6/14 15/19/14 14/17/14 1/1/14
usemtl Material.002
f 5/5/1 2/2/1 6/6/1
f 7/7/2 3/3/2 8/8/2
f 4/4/2 7/7/2 8/8/2
f 1/1/1 5/5/1 6/6/1
o Cube.001
v -0.360965 -0.763557 -1.929260
v -0.360965 -0.765687 1.138123
v -0.153672 -0.891146 -2.084463
v -0.153672 -0.892743 1.289824
v -0.360965 0.206569 -0.386217
v -0.360965 1.283206 -0.377361
v -0.153672 0.164421 -0.386361
v -0.153672 1.342433 -0.376983
v -0.100457 0.037935 -0.386790
v -0.100457 -1.274036 1.745079
v -0.100457 1.520171 -0.375849
v -0.100457 -1.274036 -2.550222
v -0.408295 0.037935 -0.386790
v -0.408295 -1.274036 -2.550222
v -0.408295 1.520171 -0.375849
v -0.408295 -1.274036 1.745079
vn -1.0000 -0.0000 -0.0000
vn 1.0000 -0.0000 -0.0000
vn -0.0000 0.6046 0.7965
vn -0.0000 -0.8551 0.5185
vn -0.0000 -0.8516 -0.5241
vn -0.0000 0.6141 -0.7892
vn 0.8734 0.4135 0.2572
vn 0.9156 -0.2457 0.3182
vn 0.8731 0.4157 -0.2548
vn 0.9154 -0.2421 -0.3215
vn -0.9363 0.2990 -0.1841
vn -0.9598 -0.1686 -0.2245
vn -0.9365 0.2973 0.1858
vn -0.9599 -0.1710 0.2222
vt 0.404785 0.036083
vt 0.404642 0.214614
vt 0.397340 0.722936
vt 0.397234 0.526541
vt 0.404642 0.125934
vt 0.583215 0.125995
vt 0.397340 0.624055
vt 0.593705 0.624010
vt 0.375000 0.624023
vt 0.375000 0.500000
vt 0.625000 0.624023
vt 0.375000 0.750000
vt 0.125000 0.624023
vt 0.375000 0.125977
vt 0.125000 0.750000
vt 0.375000 1.000000
vt 0.375000 0.000000
vt 0.875000 0.624023
vt 0.625000 0.125977
vt 0.125000 0.500000
vt 0.375000 0.250000
s 0
usemtl Material.001
f 31/39/17 32/42/17 26/31/17 27/32/17
f 29/34/18 30/36/18 28/33/18 25/30/18
f 32/41/19 29/34/19 25/30/19 26/31/19
f 27/32/20 28/33/20 30/37/20 31/39/20
f 20/25/21 26/31/21 25/30/21 23/28/21
f 19/24/22 28/33/22 27/32/22 24/29/22
f 23/28/23 25/30/23 28/33/23 19/24/23
f 24/29/24 27/32/24 26/31/24 20/25/24
f 17/22/25 30/38/25 29/35/25 21/26/25
f 18/23/26 32/42/26 31/40/26 22/27/26
f 21/26/27 29/35/27 32/42/27 18/23/27
f 22/27/28 31/40/28 30/38/28 17/22/28
usemtl Material.002
f 21/26/15 18/23/15 22/27/15
f 23/28/16 19/24/16 24/29/16
f 20/25/16 23/28/16 24/29/16
f 17/22/15 21/26/15 22/27/15
